<?xml version="1.0" encoding="UTF-8" standalone="no"?>
<svg
   version="1.0"
   width="128"
   height="128"
   viewBox="0 0 1280 1280"
   preserveAspectRatio="xMidYMid"
   id="svg2"
   sodipodi:docname="clock.svg"
   xmlns:inkscape="http://www.inkscape.org/namespaces/inkscape"
   xmlns:sodipodi="http://sodipodi.sourceforge.net/DTD/sodipodi-0.dtd"
   xmlns="http://www.w3.org/2000/svg"
   xmlns:svg="http://www.w3.org/2000/svg">
  <sodipodi:namedview
     id="namedview1"
     pagecolor="#ffffff"
     bordercolor="#666666"
     borderopacity="1.0"
     inkscape:showpageshadow="2"
     inkscape:pageopacity="0.0"
     inkscape:pagecheckerboard="0"
     inkscape:deskcolor="#d1d1d1">
    <inkscape:page
       x="0"
       y="0"
       width="1280"
       height="1280"
       id="page2"
       margin="0"
       bleed="0" />
  </sodipodi:namedview>
  <defs
     id="defs2" />
  <metadata
     id="metadata1">
Created by potrace 1.15, written by Peter Selinger 2001-2017
</metadata>
  <g
     transform="matrix(0.1,0,0,-0.1,0,1280)"
     fill="#000000"
     stroke="none"
     id="g2">
    <path
       d="M 6095,12794 C 4482,12708 3006,12054 1876,10924 804,9852 171,8496 23,6955 -1,6703 -1,6097 23,5845 171,4304 804,2948 1876,1876 2948,804 4304,171 5845,23 c 252,-24 858,-24 1110,0 1541,148 2897,781 3969,1853 1072,1072 1705,2428 1853,3969 24,252 24,858 0,1110 -148,1541 -781,2897 -1853,3969 -1069,1068 -2440,1710 -3959,1851 -162,15 -716,27 -870,19 z m 805,-763 c 411,-43 728,-102 1072,-202 1363,-393 2541,-1301 3276,-2524 529,-881 802,-1871 802,-2905 0,-1034 -273,-2024 -802,-2905 C 10410,2099 9000,1123 7413,840 7032,772 6827,755 6400,755 5973,755 5768,772 5387,840 3680,1144 2191,2245 1382,3800 816,4886 623,6135 831,7358 c 274,1618 1250,3041 2668,3892 735,441 1570,711 2416,780 72,5 148,12 170,14 79,8 712,-3 815,-13 z"
       id="path1" />
    <path
       d="m 7975,11463 c -99,-13 -220,-66 -296,-130 -108,-90 -156,-174 -224,-383 -25,-80 -82,-253 -125,-385 -43,-132 -146,-449 -230,-705 -83,-256 -155,-474 -160,-485 -6,-12 -8,131 -7,375 2,357 0,401 -16,460 -38,133 -130,260 -242,334 -166,111 -387,127 -570,42 -157,-73 -285,-234 -320,-403 -11,-55 -16,-381 -25,-1738 l -10,-1669 -24,-37 c -145,-219 -188,-496 -115,-744 50,-167 175,-351 316,-464 86,-69 245,-152 338,-176 528,-137 1067,239 1136,793 20,160 -13,347 -88,495 -13,26 -22,51 -19,55 5,8 78,233 396,1207 127,391 267,819 311,953 43,133 115,351 158,485 497,1520 471,1434 471,1538 0,96 -16,161 -62,259 -106,220 -352,355 -593,323 z"
       id="path2" />
  </g>
</svg>
